<?xml version="1.0" encoding="UTF-8" standalone="no"?><!DOCTYPE svg PUBLIC "-//W3C//DTD SVG 1.1//EN" "http://www.w3.org/Graphics/SVG/1.1/DTD/svg11.dtd"><svg width="100%" height="100%" viewBox="0 0 529 100" version="1.1" xmlns="http://www.w3.org/2000/svg" xmlns:xlink="http://www.w3.org/1999/xlink" xml:space="preserve" xmlns:serif="http://www.serif.com/" style="fill-rule:evenodd;clip-rule:evenodd;stroke-linejoin:round;stroke-miterlimit:2;"><g transform="matrix(0.519799,0,0,0.519799,46.419728,-252.440903)"><g transform="matrix(200,0,0,200,113.72816,655.969372)"><path d="M0.336,0.019c-0.066,0 -0.122,-0.011 -0.167,-0.032c-0.045,-0.021 -0.08,-0.05 -0.103,-0.086c-0.023,-0.037 -0.035,-0.078 -0.035,-0.126l0.16,-0c0,0.018 0.005,0.036 0.015,0.052c0.01,0.016 0.026,0.029 0.047,0.039c0.021,0.01 0.049,0.014 0.084,0.014c0.03,0 0.056,-0.004 0.077,-0.012c0.021,-0.008 0.036,-0.02 0.047,-0.034c0.011,-0.014 0.016,-0.031 0.016,-0.049c0,-0.024 -0.01,-0.042 -0.03,-0.056c-0.02,-0.014 -0.052,-0.022 -0.097,-0.026l-0.055,-0.005c-0.073,-0.006 -0.131,-0.029 -0.174,-0.068c-0.043,-0.039 -0.065,-0.091 -0.065,-0.156c0,-0.047 0.011,-0.088 0.033,-0.122c0.022,-0.034 0.053,-0.06 0.093,-0.078c0.04,-0.018 0.087,-0.027 0.142,-0.027c0.058,0 0.107,0.01 0.148,0.03c0.041,0.02 0.072,0.047 0.094,0.083c0.022,0.036 0.033,0.077 0.033,0.125l-0.159,0c0,-0.018 -0.004,-0.034 -0.013,-0.049c-0.009,-0.015 -0.022,-0.027 -0.039,-0.036c-0.017,-0.009 -0.038,-0.014 -0.064,-0.014c-0.024,0 -0.044,0.004 -0.06,0.012c-0.016,0.008 -0.028,0.019 -0.037,0.032c-0.008,0.014 -0.012,0.029 -0.012,0.045c0,0.021 0.007,0.039 0.022,0.054c0.015,0.015 0.039,0.024 0.073,0.027l0.055,0.005c0.053,0.004 0.101,0.016 0.141,0.034c0.041,0.018 0.072,0.044 0.095,0.075c0.023,0.032 0.034,0.07 0.034,0.115c0,0.047 -0.012,0.088 -0.036,0.123c-0.024,0.035 -0.059,0.062 -0.103,0.082c-0.045,0.019 -0.098,0.029 -0.16,0.029Z" style="fill:#142b3d;fill-rule:nonzero;"/></g><g transform="matrix(200,0,0,200,233.12816,655.969372)"><path d="M0.099,-0l0,-0.547l0.161,0l0,0.547l-0.161,-0Zm-0.073,-0.429l0,-0.118l0.234,0l0,0.118l-0.234,0Zm0.136,-0.172c-0.03,0 -0.052,-0.008 -0.067,-0.023c-0.014,-0.016 -0.022,-0.036 -0.022,-0.06c0,-0.024 0.007,-0.044 0.022,-0.06c0.014,-0.016 0.036,-0.023 0.066,-0.023c0.03,0 0.053,0.008 0.067,0.023c0.014,0.016 0.021,0.036 0.021,0.06c0,0.024 -0.007,0.044 -0.021,0.06c-0.014,0.016 -0.036,0.023 -0.066,0.023Z" style="fill:#142b3d;fill-rule:nonzero;"/></g><g transform="matrix(200,0,0,200,285.92816,655.969372)"><path d="M0.322,0.007c-0.055,0 -0.099,-0.007 -0.133,-0.021c-0.034,-0.014 -0.059,-0.037 -0.075,-0.069c-0.016,-0.032 -0.024,-0.076 -0.024,-0.132l0.001,-0.482l0.149,0l-0.001,0.489c0,0.026 0.007,0.045 0.02,0.059c0.014,0.014 0.033,0.02 0.059,0.02l0.081,0l0,0.136l-0.077,-0Zm-0.315,-0.438l-0,-0.117l0.392,0l0,0.117l-0.392,0Z" style="fill:#142b3d;fill-rule:nonzero;"/></g><g transform="matrix(200,0,0,200,358.32816,655.969372)"><path d="M0.324,0.019c-0.047,0 -0.088,-0.008 -0.123,-0.024c-0.036,-0.016 -0.065,-0.038 -0.089,-0.065c-0.024,-0.027 -0.042,-0.057 -0.054,-0.091c-0.012,-0.034 -0.019,-0.068 -0.019,-0.104l0,-0.02c0,-0.037 0.006,-0.072 0.019,-0.106c0.012,-0.034 0.03,-0.064 0.054,-0.091c0.024,-0.027 0.053,-0.048 0.087,-0.063c0.035,-0.016 0.074,-0.024 0.119,-0.024c0.059,0 0.109,0.013 0.149,0.039c0.04,0.026 0.071,0.061 0.092,0.103c0.021,0.043 0.032,0.089 0.032,0.138l0,0.054l-0.485,0l0,-0.091l0.388,0l-0.053,0.043c0,-0.033 -0.005,-0.061 -0.014,-0.084c-0.009,-0.023 -0.023,-0.041 -0.041,-0.053c-0.018,-0.012 -0.041,-0.018 -0.069,-0.019c-0.028,0 -0.051,0.006 -0.071,0.019c-0.019,0.013 -0.034,0.031 -0.044,0.055c-0.01,0.024 -0.015,0.054 -0.015,0.089c0,0.033 0.005,0.061 0.014,0.085c0.01,0.024 0.024,0.043 0.044,0.057c0.02,0.013 0.046,0.02 0.077,0.02c0.03,0 0.054,-0.006 0.073,-0.017c0.019,-0.011 0.031,-0.025 0.038,-0.043l0.147,0c-0.008,0.037 -0.023,0.07 -0.047,0.099c-0.023,0.029 -0.053,0.051 -0.088,0.067c-0.036,0.016 -0.076,0.024 -0.122,0.024Z" style="fill:#142b3d;fill-rule:nonzero;"/></g><g transform="matrix(200,0,0,200,469.12816,655.969372)"><path d="M0.336,0.019c-0.066,0 -0.122,-0.011 -0.167,-0.032c-0.045,-0.021 -0.08,-0.05 -0.103,-0.086c-0.023,-0.037 -0.035,-0.078 -0.035,-0.126l0.16,-0c0,0.018 0.005,0.036 0.015,0.052c0.01,0.016 0.026,0.029 0.047,0.039c0.021,0.01 0.049,0.014 0.084,0.014c0.03,0 0.056,-0.004 0.077,-0.012c0.021,-0.008 0.036,-0.02 0.047,-0.034c0.011,-0.014 0.016,-0.031 0.016,-0.049c0,-0.024 -0.01,-0.042 -0.03,-0.056c-0.02,-0.014 -0.052,-0.022 -0.097,-0.026l-0.055,-0.005c-0.073,-0.006 -0.131,-0.029 -0.174,-0.068c-0.043,-0.039 -0.065,-0.091 -0.065,-0.156c0,-0.047 0.011,-0.088 0.033,-0.122c0.022,-0.034 0.053,-0.06 0.093,-0.078c0.04,-0.018 0.087,-0.027 0.142,-0.027c0.058,0 0.107,0.01 0.148,0.03c0.041,0.02 0.072,0.047 0.094,0.083c0.022,0.036 0.033,0.077 0.033,0.125l-0.159,0c0,-0.018 -0.004,-0.034 -0.013,-0.049c-0.009,-0.015 -0.022,-0.027 -0.039,-0.036c-0.017,-0.009 -0.038,-0.014 -0.064,-0.014c-0.024,0 -0.044,0.004 -0.06,0.012c-0.016,0.008 -0.028,0.019 -0.037,0.032c-0.008,0.014 -0.012,0.029 -0.012,0.045c0,0.021 0.007,0.039 0.022,0.054c0.015,0.015 0.039,0.024 0.073,0.027l0.055,0.005c0.053,0.004 0.101,0.016 0.141,0.034c0.041,0.018 0.072,0.044 0.095,0.075c0.023,0.032 0.034,0.07 0.034,0.115c0,0.047 -0.012,0.088 -0.036,0.123c-0.024,0.035 -0.059,0.062 -0.103,0.082c-0.045,0.019 -0.098,0.029 -0.16,0.029Z" style="fill:#ff5536;fill-rule:nonzero;"/></g><g transform="matrix(200,0,0,200,588.52816,655.969372)"><path d="M0.324,0.019c-0.047,0 -0.088,-0.008 -0.123,-0.024c-0.036,-0.016 -0.065,-0.038 -0.089,-0.065c-0.024,-0.027 -0.042,-0.057 -0.054,-0.091c-0.012,-0.034 -0.019,-0.068 -0.019,-0.104l0,-0.02c0,-0.037 0.006,-0.072 0.019,-0.106c0.012,-0.034 0.03,-0.064 0.054,-0.091c0.024,-0.027 0.053,-0.048 0.087,-0.063c0.035,-0.016 0.074,-0.024 0.119,-0.024c0.059,0 0.109,0.013 0.149,0.039c0.04,0.026 0.071,0.061 0.092,0.103c0.021,0.043 0.032,0.089 0.032,0.138l0,0.054l-0.485,0l0,-0.091l0.388,0l-0.053,0.043c0,-0.033 -0.005,-0.061 -0.014,-0.084c-0.009,-0.023 -0.023,-0.041 -0.041,-0.053c-0.018,-0.012 -0.041,-0.018 -0.069,-0.019c-0.028,0 -0.051,0.006 -0.071,0.019c-0.019,0.013 -0.034,0.031 -0.044,0.055c-0.01,0.024 -0.015,0.054 -0.015,0.089c0,0.033 0.005,0.061 0.014,0.085c0.01,0.024 0.024,0.043 0.044,0.057c0.02,0.013 0.046,0.02 0.077,0.02c0.03,0 0.054,-0.006 0.073,-0.017c0.019,-0.011 0.031,-0.025 0.038,-0.043l0.147,0c-0.008,0.037 -0.023,0.07 -0.047,0.099c-0.023,0.029 -0.053,0.051 -0.088,0.067c-0.036,0.016 -0.076,0.024 -0.122,0.024Z" style="fill:#ff5536;fill-rule:nonzero;"/></g><g transform="matrix(200,0,0,200,699.32816,655.969372)"><path d="M0.324,0.019c-0.047,0 -0.088,-0.008 -0.123,-0.024c-0.036,-0.016 -0.065,-0.038 -0.089,-0.065c-0.024,-0.027 -0.042,-0.057 -0.054,-0.091c-0.012,-0.034 -0.019,-0.068 -0.019,-0.104l0,-0.02c0,-0.037 0.006,-0.072 0.019,-0.106c0.012,-0.034 0.03,-0.064 0.054,-0.091c0.024,-0.027 0.053,-0.048 0.087,-0.063c0.035,-0.016 0.074,-0.024 0.119,-0.024c0.059,0 0.109,0.013 0.149,0.039c0.04,0.026 0.071,0.061 0.092,0.103c0.021,0.043 0.032,0.089 0.032,0.138l0,0.054l-0.485,0l0,-0.091l0.388,0l-0.053,0.043c0,-0.033 -0.005,-0.061 -0.014,-0.084c-0.009,-0.023 -0.023,-0.041 -0.041,-0.053c-0.018,-0.012 -0.041,-0.018 -0.069,-0.019c-0.028,0 -0.051,0.006 -0.071,0.019c-0.019,0.013 -0.034,0.031 -0.044,0.055c-0.01,0.024 -0.015,0.054 -0.015,0.089c0,0.033 0.005,0.061 0.014,0.085c0.01,0.024 0.024,0.043 0.044,0.057c0.02,0.013 0.046,0.02 0.077,0.02c0.03,0 0.054,-0.006 0.073,-0.017c0.019,-0.011 0.031,-0.025 0.038,-0.043l0.147,0c-0.008,0.037 -0.023,0.07 -0.047,0.099c-0.023,0.029 -0.053,0.051 -0.088,0.067c-0.036,0.016 -0.076,0.024 -0.122,0.024Z" style="fill:#ff5536;fill-rule:nonzero;"/></g><g transform="matrix(200,0,0,200,810.12816,655.969372)"><path d="M0.072,-0l0,-0.547l0.127,0l0,0.235l-0.009,0c0,-0.056 0.007,-0.103 0.022,-0.14c0.015,-0.037 0.036,-0.065 0.065,-0.084c0.029,-0.019 0.065,-0.028 0.107,-0.028l0.007,0c0.064,0 0.113,0.021 0.147,0.063c0.034,0.042 0.051,0.105 0.051,0.189l0,0.313l-0.16,-0l0,-0.322c-0,-0.029 -0.009,-0.053 -0.026,-0.072c-0.017,-0.019 -0.04,-0.028 -0.07,-0.028c-0.03,0 -0.054,0.009 -0.072,0.028c-0.018,0.019 -0.027,0.044 -0.027,0.074l0,0.319l-0.161,-0Z" style="fill:#ff5536;fill-rule:nonzero;"/></g><g transform="matrix(200,0,0,200,940.52816,655.969372)"></g></g><g><path d="M11.65,48.504l-11.65,0l14.625,-13.052l0,-23.666l19.947,0l0,5.865l19.781,-17.652l54.353,48.504l-11.65,0l0,-0.117l-0.016,0l-42.687,-38.481l-42.687,38.481l-0.016,0l0,0.117Zm85.405,0l0,50.693l-42.703,0l0,-39.024l-21.578,0l0,39.024l-21.125,0l-0,-50.693l85.405,0Z" style="fill:#142b3d;"/><path d="M32.775,66.188l13.257,-15.08l5.418,4.772l0.029,-0.033l1.732,1.523l29.938,-34.11l-7.429,-6.534l30.437,-3.984l-0.03,30.728l-8.449,-7.431l-29.938,34.11l0.014,0.012l-12.764,14.543l-7.168,-6.304l-15.047,17.117l0,-29.328Z" style="fill:#ff5536;"/></g></svg>